<?xml version="1.0" encoding="UTF-8" standalone="no"?>
<svg version="1.0" width="256" height="256" viewBox="0 0 256 256" id="svg1" xmlns="http://www.w3.org/2000/svg" xmlns:svg="http://www.w3.org/2000/svg">
	<g style="fill:currentcolor" id="elite">
		<path d="m 240,81.332032 -13.89257,9.728516 -11.76172,8.236329 -7.3086,5.115233 A 82.5,82.5 0 0 1 210.5,128 a 82.5,82.5 0 0 1 -0.0781,1 82.5,82.5 0 0 1 -65.92188,79.6211 82.5,82.5 0 0 1 -12.5,1.56445 v 8.5 18.18359 l 12.5,-10.48828 v -9.04492 A 91,91 0 0 0 219,128 91,91 0 0 0 218.9746,127.05469 L 240,112.33203 v -1.42969 z" />
		<path d="m 16,81.562501 v 28.871089 2.12891 l 21.054688,14.74219 A 91,91 0 0 0 37.000001,128 91,91 0 0 0 111.5,217.33594 v 9.04492 l 12.5,10.48828 v -18.18359 -8.5 A 82.5,82.5 0 0 1 111.5,208.6211 82.5,82.5 0 0 1 45.578126,129 a 82.5,82.5 0 0 1 -0.07813,-1 82.5,82.5 0 0 1 3.515625,-23.32031 L 41.611329,99.496095 29.564454,91.060548 Z" />
	</g>
</svg>
