<svg width="128" height="128" viewBox="0 0 128 128" xmlns="http://www.w3.org/2000/svg">
	<g style="fill:currentcolor">
		<path d="M26.367 0C13.44 0 0 13.44 0 26.367v75.266C0 114.56 13.44 128 26.367 128h75.266C114.56 128 128 114.56 128 101.633V26.367C128 13.44 114.56 0 101.633 0zm.77 6.4h73.726c10.24 0 20.737 10.88 20.737 21.504v72.448c0 10.624-10.624 21.248-21.248 21.248H27.775C17.023 121.6 6.4 110.976 6.4 100.352V27.904C6.4 17.664 17.28 6.4 27.137 6.4z" />
		<path d="M15.232 40.32v46.336h33.153v-7.552H23.809V66.049h21.119v-6.912h-21.12V47.615h24.063V40.32zM99.457 52.48c8.576 0 13.823 4.864 14.975 12.032h-7.807c-.896-3.712-3.2-6.016-7.168-6.016-5.76 0-8.832 4.864-8.832 11.52 0 6.528 3.072 11.52 8.832 11.52 4.48 0 6.912-2.304 7.424-7.04h7.68c-.512 7.808-6.016 13.184-15.104 13.184-10.24 0-16.896-7.808-16.896-17.664 0-9.856 6.656-17.536 16.896-17.536zM64.768 52.48c8.832 0 13.184 3.84 14.08 9.856h-7.551c-.512-2.944-2.69-4.48-6.53-4.48-3.711 0-5.63 1.536-5.63 3.968 0 2.944 3.455 3.457 8.447 4.48 6.272 1.025 12.545 2.817 12.545 10.753 0 7.04-6.017 10.623-14.21 10.623-9.6 0-14.975-4.48-15.487-11.264h7.68c.511 3.968 3.457 5.76 7.937 5.76s6.398-1.92 6.398-4.608c0-3.456-3.456-3.968-8.576-4.992-6.272-1.024-12.287-2.816-12.287-10.24 0-6.272 5.376-9.856 13.184-9.856z" />
	</g>
</svg>
