<?xml version="1.0" encoding="UTF-8" standalone="no"?>
<svg version="1.0" width="256" height="256" viewBox="0 0 256 256" id="svg1" xmlns="http://www.w3.org/2000/svg" xmlns:svg="http://www.w3.org/2000/svg">
	<g style="fill:currentcolor" id="paragon">
		<path d="m 111.5,208.6211 v 8.71484 23.04492 l 16.5,13.84375 16.5,-13.84375 v -23.04492 -8.71484 c -5.42281,1.17967 -10.9508,1.80916 -16.5,1.8789 -5.5492,-0.0697 -11.07719,-0.69923 -16.5,-1.8789 z" />
		<path d="m 240,81.332032 -13.89257,9.728516 -11.76172,8.236329 -7.3086,5.115233 c 2.29027,7.6535 3.45674,15.59907 3.46289,23.58789 -0.024,0.33349 -0.05,0.66683 -0.0781,1 -0.0762,2.8469 -0.29985,5.68794 -0.66992,8.51172 -0.54109,4.90736 -1.52159,9.75624 -2.92971,14.48828 -7.24204,23.53625 -24.6194,42.60694 -47.38281,52 -3.07685,1.29012 -6.22912,2.3924 -9.43946,3.30078 V 216.01563 234 l 15,-15 v -8.13086 C 189.78533,199.76974 208.31814,178.1806 215.53516,152 h 0.82422 L 236,138.24805 v -10.29297 -8.82227 l -4.14453,2.90235 -13.10937,9.17773 c 0.10359,-1.06938 0.18824,-2.14051 0.2539,-3.21289 -0.007,-0.31515 -0.0153,-0.63025 -0.0254,-0.94531 L 240,112.33203 v -1.42969 z" />
		<path d="m 16,81.332032 13.89257,9.728516 11.76172,8.236329 7.3086,5.115233 C 46.67262,112.06561 45.50615,120.01118 45.5,128 c 0.024,0.33349 0.05,0.66683 0.0781,1 0.0762,2.8469 0.29985,5.68794 0.66992,8.51172 0.54109,4.90736 1.52159,9.75624 2.92971,14.48828 7.24204,23.53625 24.6194,42.60694 47.38281,52 3.07685,1.29012 6.22912,2.3924 9.43946,3.30078 V 216.01563 234 L 91,219 v -8.13086 C 66.21467,199.76974 47.68186,178.1806 40.46484,152 H 39.64062 L 20,138.24805 v -10.29297 -8.82227 l 4.14453,2.90235 13.10937,9.17773 C 37.15031,130.14351 37.06566,129.07238 37,128 c 0.007,-0.31515 0.0153,-0.63025 0.0254,-0.94531 L 16,112.33203 v -1.42969 z" />
		<path d="M 151.75,55.25 128,79.000001 104.25,55.25 l -5.249998,5.250001 28.999998,29 29,-29 z" />
		<path d="M 128,37 109.5,55.5 128,74.000001 146.5,55.5 Z" />
	</g>
</svg>