<?xml version="1.0" encoding="UTF-8" standalone="no"?>
<svg version="1.0" width="256" height="256" viewBox="0 0 256 256" xmlns="http://www.w3.org/2000/svg" xmlns:svg="http://www.w3.org/2000/svg">
	<g style="fill:currentcolor">
		<path d="m 128,56 a 72,72 0 0 0 -72,72 72,72 0 0 0 72,72 72,72 0 0 0 72,-72 72,72 0 0 0 -72,-72 z m -1.5625,37.541016 c 9.27359,0 16.36394,2.957499 21.26953,8.871094 4.9056,5.84639 7.35742,14.54708 7.35742,26.10547 0,24.66237 -9.20636,36.99414 -27.61914,36.99414 -6.98879,0 -12.56602,-1.64666 -16.73242,-4.93945 -4.16639,-3.36 -6.65258,-7.72753 -7.45898,-13.10352 h 13.30468 c 1.344,5.03999 4.83958,7.56055 10.48438,7.56055 4.36799,0 7.69372,-1.44439 9.97851,-4.33399 2.7552,-3.49439 4.19959,-8.90567 4.33399,-16.23047 h -0.20117 c -4.3008,5.04 -9.64335,7.56055 -16.02735,7.56055 -7.12319,0 -13.03624,-2.21715 -17.74023,-6.65234 -4.6368,-4.5024 -6.95508,-10.38303 -6.95508,-17.64063 0,-7.05599 2.45183,-12.83549 7.35742,-17.33789 4.9728,-4.569594 11.18925,-6.853514 18.64844,-6.853514 z m 0.70508,10.785154 c -3.9648,0 -7.22375,1.27648 -9.77735,3.83008 -2.55359,2.4864 -3.83007,5.6118 -3.83007,9.375 0,3.9648 1.2097,7.18938 3.6289,9.67578 2.4192,2.4864 5.71251,3.73047 9.87891,3.73047 3.96479,0 7.25615,-1.20971 9.87695,-3.62891 2.688,-2.48639 4.0332,-5.67857 4.0332,-9.57617 0,-3.89759 -1.31084,-7.08977 -3.93164,-9.57617 -2.62079,-2.5536 -5.91411,-3.83008 -9.8789,-3.83008 z" />
		<path d="m 111.5,208.6211 v 8.71484 23.04492 l 16.5,13.84375 16.5,-13.84375 V 217.33594 208.6211 A 82.5,82.5 0 0 1 128,210.5 82.5,82.5 0 0 1 111.5,208.6211 Z" />
		<path d="m 240,81.332032 -13.89257,9.728516 -11.76172,8.236329 -7.3086,5.115233 A 82.5,82.5 0 0 1 210.5,128 82.5,82.5 0 0 1 210.4219,129 82.5,82.5 0 0 1 159.43948,204 82.5,82.5 0 0 1 150,207.30078 V 216.01563 234 l 15,-15 v -8.13086 A 91,91 0 0 0 219,128 91,91 0 0 0 218.9746,127.05469 L 240,112.33203 v -1.42969 z" />
		<path d="m 16,81.562501 v 28.871089 2.12891 l 21.054688,14.74219 A 91,91 0 0 0 37.000001,128 91,91 0 0 0 91.000002,210.86914 V 219 L 106,234 v -17.98437 -8.71485 A 82.5,82.5 0 0 1 96.560549,204 82.5,82.5 0 0 1 45.578126,129 a 82.5,82.5 0 0 1 -0.07813,-1 82.5,82.5 0 0 1 3.515625,-23.32031 L 41.611329,99.496095 29.564454,91.060548 Z" />
	</g>
</svg>
