<?xml version="1.0" encoding="UTF-8" standalone="no"?>
<svg width="144" height="144" viewBox="0 0 144 144" version="1.1" xmlns="http://www.w3.org/2000/svg" xmlns:svg="http://www.w3.org/2000/svg">
	<g style="fill:currentcolor">
		<path d="M 72,0 A 72,72 0 0 0 0,72 72,72 0 0 0 72,144 72,72 0 0 0 144,72 72,72 0 0 0 72,0 Z M 53.855469,38.951172 H 94.580078 V 50.341797 H 63.431641 l -2.621094,14.919922 h 0.203125 c 3.359997,-2.889597 8.130106,-4.335938 14.3125,-4.335938 6.383994,0 11.862045,2.219101 16.43164,6.654297 4.636796,4.435196 6.955079,10.247107 6.955079,17.4375 0,7.123193 -2.554915,13.00383 -7.66211,17.640622 -5.039995,4.5696 -11.389988,6.85352 -19.050781,6.85352 -7.727993,0 -14.144758,-1.9157 -19.251953,-5.74609 -5.039995,-3.830401 -7.89636,-9.071821 -8.56836,-15.724614 h 13.50586 c 0.604799,3.292796 2.152274,5.778986 4.638672,7.458984 2.553597,1.679998 5.67705,2.521484 9.373047,2.521484 3.830396,0 6.921439,-1.209708 9.273437,-3.628906 2.351998,-2.486397 3.529297,-5.611804 3.529297,-9.375 0,-3.964796 -1.209709,-7.05584 -3.628906,-9.273437 -2.351998,-2.284798 -5.410632,-3.427735 -9.173828,-3.427735 -5.039995,0 -8.802665,1.444387 -11.289063,4.333985 H 47.203125 Z" />
	</g>
</svg>
