<?xml version="1.0" encoding="UTF-8" standalone="no"?>
<svg width="144" height="144" viewBox="0 0 144 144" version="1.1" xmlns="http://www.w3.org/2000/svg" xmlns:svg="http://www.w3.org/2000/svg">
	<g style="fill:currentcolor">
		<path d="M 72,0 A 72,72 0 0 0 0,72 72,72 0 0 0 72,144 72,72 0 0 0 144,72 72,72 0 0 0 72,0 Z M 47.203125,38.951172 H 96.394531 V 50.242187 C 89.540138,57.230981 83.793046,65.664578 79.15625,75.542969 74.519454,85.421359 71.966493,96.240011 71.496094,108 H 56.578125 c 0.2688,-7.92959 1.779959,-15.792698 4.535156,-23.587891 2.822398,-7.862392 5.947804,-14.380292 9.375,-19.554687 3.427197,-5.241595 7.088732,-9.87816 10.986328,-13.910156 V 50.746094 H 47.203125 Z" />
	</g>
</svg>
