<?xml version="1.0" encoding="UTF-8" standalone="no"?>
<svg width="144" height="144" viewBox="0 0 144 144" version="1.1" xmlns="http://www.w3.org/2000/svg" xmlns:svg="http://www.w3.org/2000/svg">
	<g style="fill:currentcolor">
		<path d="M 72,0 A 72,72 0 0 0 0,72 72,72 0 0 0 72,144 72,72 0 0 0 144,72 72,72 0 0 0 72,0 Z M 52.646484,38.447266 H 64.640625 V 108 H 50.832031 V 59.818359 h -15.625 v -9.072265 c 10.34879,-0.4032 16.162655,-4.503636 17.439453,-12.298828 z m 39.513672,0 H 104.1543 V 108 H 90.345703 V 59.818359 h -15.625 v -9.072265 c 10.34879,-0.4032 16.162654,-4.503636 17.439453,-12.298828 z" />
	</g>
</svg>
