<?xml version="1.0" encoding="UTF-8" standalone="no"?>
<svg width="144" height="144" viewBox="0 0 144 144" version="1.1" xmlns="http://www.w3.org/2000/svg" xmlns:svg="http://www.w3.org/2000/svg">
	<g style="fill:currentcolor">
		<path d="m 91.857422,49.132812 c -4.972795,10e-7 -8.668693,2.150377 -11.087891,6.451172 -2.351997,4.300796 -3.527344,10.282567 -3.527344,17.94336 0,7.660792 1.175347,13.64061 3.527344,17.941406 2.419198,4.300796 6.115096,6.451172 11.087891,6.451172 9.609588,0 14.414058,-8.130194 14.414058,-24.392578 0,-7.660793 -1.17534,-13.642564 -3.52734,-17.94336 -2.352,-4.300795 -5.981123,-6.451172 -10.886718,-6.451172 z M 72,0 A 72,72 0 0 0 0,72 72,72 0 0 0 72,144 72,72 0 0 0 144,72 72,72 0 0 0 72,0 Z m 19.857422,37.439453 c 8.870388,0 15.859598,3.25895 20.966798,9.777344 5.17439,6.451194 7.76172,15.222558 7.76172,26.310547 0,11.020789 -2.58733,19.7902 -7.76172,26.308593 -5.1072,6.518393 -12.13077,9.777343 -21.068361,9.777343 -8.803191,0 -15.824811,-3.25895 -21.066406,-9.777343 -5.174395,-6.518393 -7.761719,-15.287804 -7.761719,-26.308593 0,-11.02079 2.621687,-19.792153 7.863282,-26.310547 5.241595,-6.518394 12.263214,-9.777344 21.066406,-9.777344 z M 40.550781,38.447266 H 52.544922 V 108 H 38.736328 V 59.818359 h -15.625 v -9.072265 c 10.34879,-0.4032 16.162654,-4.503636 17.439453,-12.298828 z" />
	</g>
</svg>
