<?xml version="1.0" encoding="UTF-8" standalone="no"?>
<svg version="1.0" width="256" height="256" viewBox="0 0 256 256" xmlns="http://www.w3.org/2000/svg" xmlns:svg="http://www.w3.org/2000/svg">
	<g style="fill:currentcolor">
		<path d="m 147.85742,105.13281 c -4.97279,0 -8.66869,2.15038 -11.08789,6.45117 -2.352,4.3008 -3.52734,10.28257 -3.52734,17.94336 0,7.6608 1.17534,13.64061 3.52734,17.94141 2.4192,4.3008 6.1151,6.45117 11.08789,6.45117 9.60959,0 14.41406,-8.13019 14.41406,-24.39258 0,-7.66079 -1.17534,-13.64256 -3.52734,-17.94336 -2.352,-4.30079 -5.98112,-6.45117 -10.88672,-6.45117 z M 128,56 a 72,72 0 0 0 -72,72 72,72 0 0 0 72,72 72,72 0 0 0 72,-72 72,72 0 0 0 -72,-72 z m 19.85742,37.439453 c 8.87039,0 15.8596,3.25895 20.9668,9.777347 5.17439,6.45119 7.76172,15.22256 7.76172,26.31054 0,11.02079 -2.58733,19.7902 -7.76172,26.3086 -5.1072,6.51839 -12.13077,9.77734 -21.06836,9.77734 -8.80319,0 -15.82481,-3.25895 -21.06641,-9.77734 -5.17439,-6.5184 -7.76172,-15.28781 -7.76172,-26.3086 0,-11.02079 2.62169,-19.79215 7.86329,-26.31054 5.24159,-6.518397 12.26321,-9.777347 21.0664,-9.777347 z m -51.30664,1.007813 h 11.99414 V 164 H 94.73633 v -48.18164 h -15.625 v -9.07227 c 10.34879,-0.4032 16.16265,-4.50363 17.43945,-12.298824 z" />
		<path d="m 111.5,208.6211 v 8.71484 23.04492 l 16.5,13.84375 16.5,-13.84375 V 217.33594 208.6211 A 82.5,82.5 0 0 1 128,210.5 82.5,82.5 0 0 1 111.5,208.6211 Z" />
		<path d="m 240,81.332032 -13.89257,9.728516 -11.76172,8.236329 -7.3086,5.115233 A 82.5,82.5 0 0 1 210.5,128 82.5,82.5 0 0 1 210.4219,129 82.5,82.5 0 0 1 159.43948,204 82.5,82.5 0 0 1 150,207.30078 V 216.01563 234 l 15,-15 v -8.13086 A 91,91 0 0 0 219,128 91,91 0 0 0 218.9746,127.05469 L 240,112.33203 v -1.42969 z" />
		<path d="m 16,81.562501 v 28.871089 2.12891 l 21.054688,14.74219 A 91,91 0 0 0 37.000001,128 91,91 0 0 0 91.000002,210.86914 V 219 L 106,234 v -17.98437 -8.71485 A 82.5,82.5 0 0 1 96.560549,204 82.5,82.5 0 0 1 45.578126,129 a 82.5,82.5 0 0 1 -0.07813,-1 82.5,82.5 0 0 1 3.515625,-23.32031 L 41.611329,99.496095 29.564454,91.060548 Z" />
	</g>
</svg>
