<?xml version="1.0" encoding="UTF-8" standalone="no"?>
<svg width="144" height="144" viewBox="0 0 144 144" version="1.1" xmlns="http://www.w3.org/2000/svg" xmlns:svg="http://www.w3.org/2000/svg">
	<g style="fill:currentcolor">
		<path d="M 72,0 A 72,72 0 0 0 0,72 72,72 0 0 0 72,144 72,72 0 0 0 144,72 72,72 0 0 0 72,0 Z m 1.511719,37.541016 c 6.719993,0 12.129319,1.646656 16.228515,4.939453 4.166396,3.292797 6.686948,7.593549 7.560547,12.902343 H 84.095703 c -1.142399,-4.905595 -4.502483,-7.359374 -10.080078,-7.359375 -4.905595,10e-7 -8.633902,1.747791 -11.1875,5.242188 -2.486398,3.427197 -3.730469,8.266031 -3.730469,14.515625 h 0.201172 c 4.099196,-4.771195 9.508522,-7.158203 16.228516,-7.158203 6.585593,0 12.231551,2.320236 16.935547,6.957031 4.703995,4.636796 7.054687,10.549841 7.054687,17.740234 0,7.055994 -2.486189,12.867905 -7.458984,17.437498 -4.905595,4.5024 -10.986548,6.75391 -18.244141,6.75391 -9.340791,0 -16.431136,-3.29331 -21.269531,-9.878908 C 47.773727,92.980019 45.3219,84.615146 45.1875,74.535156 45.0531,61.699969 47.875102,52.0223 53.654297,45.503906 c 4.703995,-5.308795 11.32303,-7.96289 19.857422,-7.96289 z m -0.09961,34.171875 c -4.166396,0 -7.459708,1.27648 -9.878906,3.830078 -2.351998,2.486397 -3.529297,5.777757 -3.529297,9.876953 0,3.897596 1.244071,7.089774 3.730469,9.576172 2.486398,2.486397 5.678576,3.730469 9.576172,3.730468 3.695996,0 6.78704,-1.244071 9.273437,-3.730468 2.553598,-2.553598 3.830078,-5.711413 3.830078,-9.47461 10e-7,-3.964796 -1.242118,-7.258108 -3.728515,-9.878906 -2.486398,-2.620797 -5.577441,-3.929687 -9.273438,-3.929687 z" />
	</g>
</svg>
