<?xml version="1.0" encoding="UTF-8" standalone="no"?>
<svg width="144" height="144" viewBox="0 0 144 144" version="1.1" xmlns="http://www.w3.org/2000/svg" xmlns:svg="http://www.w3.org/2000/svg">
	<g style="fill:currentcolor">
		<path d="M 72,0 A 72,72 0 0 0 0,72 72,72 0 0 0 72,144 72,72 0 0 0 144,72 72,72 0 0 0 72,0 Z m 0.201172,34.617187 c 7.526393,0 13.473801,1.98247 17.841797,5.947266 4.435195,3.964796 6.652343,9.0059 6.652343,15.121094 10e-7,2.351998 -0.269041,4.468011 -0.80664,6.349609 -0.5376,1.881598 -1.377132,3.528255 -2.519531,4.939453 -1.075199,1.411199 -2.015867,2.48541 -2.822266,3.22461 -0.806399,0.739199 -1.949336,1.679866 -3.427734,2.822265 -0.672,0.5376 -1.645077,1.277951 -2.921875,2.21875 -1.209599,0.8736 -2.049132,1.478454 -2.519532,1.814453 -0.403199,0.336 -1.008054,0.874082 -1.814453,1.613282 -0.806399,0.671999 -1.344481,1.242491 -1.613281,1.71289 -0.2016,0.4032 -0.470641,0.973692 -0.806641,1.712891 -0.335999,0.671999 -0.570678,1.412351 -0.705078,2.21875 -0.0672,0.739199 -0.101562,1.613095 -0.101562,2.621094 H 64.339844 c 0,-2.822398 0.200316,-5.209405 0.603515,-7.158203 0.4704,-2.015998 1.277523,-3.761836 2.419922,-5.240235 1.209599,-1.545598 2.251401,-2.688535 3.125,-3.427734 0.873599,-0.739199 2.317987,-1.847773 4.333985,-3.326172 2.083198,-1.478399 3.495175,-2.520201 4.234375,-3.125 0.806399,-0.671999 1.645932,-1.780573 2.519531,-3.326172 0.940799,-1.545598 1.410156,-3.293389 1.410156,-5.242187 0,-3.023997 -1.007439,-5.409052 -3.023437,-7.15625 -1.948798,-1.814399 -4.50176,-2.722657 -7.660157,-2.722657 -3.763196,0 -6.787467,1.142937 -9.072265,3.427735 -2.284798,2.217598 -3.460144,5.276232 -3.527344,9.173828 H 46.699219 c 0.1344,-6.988793 2.41832,-12.768295 6.853515,-17.337891 4.502396,-4.569595 10.718846,-6.855469 18.648438,-6.855469 z M 63.128906,93.384766 H 77.845703 V 108 H 63.128906 Z" />
	</g>
</svg>
