<?xml version="1.0" encoding="UTF-8" standalone="no"?>
<svg width="144" height="144" viewBox="0 0 144 144" version="1.1" xmlns="http://www.w3.org/2000/svg" xmlns:svg="http://www.w3.org/2000/svg">
	<g style="fill:currentcolor">
		<path d="M 72,0 A 72,72 0 0 0 0,72 72,72 0 0 0 72,144 72,72 0 0 0 144,72 72,72 0 0 0 72,0 Z m -1.5625,37.541016 c 9.273591,0 16.363936,2.957499 21.269531,8.871093 4.905595,5.846395 7.357422,14.54708 7.357422,26.105469 0,24.662376 -9.206358,36.994142 -27.619141,36.994142 -6.988793,0 -12.566025,-1.64666 -16.732421,-4.93945 -4.166396,-3.36 -6.652586,-7.727525 -7.458985,-13.10352 h 13.304688 c 1.343998,5.039995 4.83958,7.560547 10.484375,7.560547 4.367996,0 7.693718,-1.444387 9.978515,-4.333985 2.755198,-3.494396 4.199585,-8.905675 4.333985,-16.230468 h -0.201172 c -4.300796,5.039995 -9.64335,7.560547 -16.027344,7.560547 -7.123193,0 -13.036239,-2.217148 -17.740234,-6.652344 -4.636796,-4.502396 -6.955078,-10.383032 -6.955078,-17.640625 0,-7.055993 2.451826,-12.835495 7.357421,-17.337891 4.972796,-4.569595 11.189245,-6.853515 18.648438,-6.853515 z m 0.705078,10.785156 c -3.964796,0 -7.223746,1.27648 -9.777344,3.830078 -2.553597,2.486398 -3.830078,5.611804 -3.830078,9.375 0,3.964796 1.209709,7.189384 3.628906,9.675781 2.419198,2.486398 5.712511,3.730469 9.878907,3.730469 3.964796,0 7.256155,-1.209709 9.876953,-3.628906 2.687997,-2.486398 4.033203,-5.678576 4.033203,-9.576172 0,-3.897596 -1.310843,-7.089774 -3.931641,-9.576172 -2.620797,-2.553598 -5.91411,-3.830078 -9.878906,-3.830078 z" />
	</g>
</svg>
