<?xml version="1.0" encoding="UTF-8" standalone="no"?>
<svg width="144" height="144" viewBox="0 0 144 144" version="1.1" xmlns="http://www.w3.org/2000/svg" xmlns:svg="http://www.w3.org/2000/svg">
	<g style="fill:currentcolor">
		<path d="m 72.050781,47.923828 c -3.561596,0 -6.383599,0.839533 -8.466797,2.519531 -2.015998,1.612799 -3.02539,3.797537 -3.02539,6.552735 0,2.755197 1.009392,5.004755 3.02539,6.751953 2.083198,1.679998 4.905201,2.521484 8.466797,2.521484 3.494397,0 6.249627,-0.841486 8.265625,-2.521484 2.083198,-1.747198 3.125,-3.996756 3.125,-6.751953 0,-2.755198 -1.009392,-4.939936 -3.02539,-6.552735 -2.015998,-1.679998 -4.803638,-2.519531 -8.365235,-2.519531 z m 0.201172,27.921875 c -4.233596,0 -7.59368,1.074212 -10.080078,3.224609 -2.486398,2.083198 -3.728516,4.905201 -3.728516,8.466797 0,3.359997 1.207756,6.014093 3.626953,7.962891 2.486398,1.948798 5.814073,2.923828 9.980469,2.923828 4.031996,0 7.290946,-0.97503 9.777344,-2.923828 2.553598,-2.015998 3.830078,-4.670094 3.830078,-7.962891 0,-3.561596 -1.209708,-6.383599 -3.628906,-8.466797 -2.351998,-2.150397 -5.610948,-3.224609 -9.777344,-3.224609 z M 72,0 A 72,72 0 0 0 0,72 72,72 0 0 0 72,144 72,72 0 0 0 144,72 72,72 0 0 0 72,0 Z m 0.251953,37.541016 c 7.526393,0 13.508164,1.612293 17.943359,4.83789 4.435196,3.158397 6.652344,7.594646 6.652344,13.306641 0,6.182394 -3.192178,10.784597 -9.576172,13.808594 v 0.302734 c 3.830397,1.343999 6.854668,3.595509 9.072266,6.753906 2.284798,3.091197 3.425781,6.720323 3.425781,10.886719 0,6.921593 -2.552961,12.330919 -7.660156,16.22852 -5.107195,3.89759 -11.691867,5.8457 -19.755859,5.8457 -8.131192,0 -14.851362,-1.88134 -20.160157,-5.64453 -5.308794,-3.8304 -7.96289,-9.106181 -7.96289,-15.826174 0,-4.233596 1.140983,-7.929494 3.425781,-11.087891 2.284798,-3.225597 5.343432,-5.576289 9.173828,-7.054688 v -0.302734 c -6.451194,-2.956797 -9.677734,-7.52659 -9.677734,-13.708984 0,-5.779195 2.285873,-10.282216 6.855468,-13.507813 4.569596,-3.225597 10.650548,-4.83789 18.244141,-4.83789 z" />
	</g>
</svg>
