<?xml version="1.0" encoding="UTF-8" standalone="no"?>
<svg version="1.0" width="256" height="256" viewBox="0 0 256 256" xmlns="http://www.w3.org/2000/svg" xmlns:svg="http://www.w3.org/2000/svg">
	<g style="fill:currentcolor">
		<path d="m 128.05078,103.92383 c -3.56159,0 -6.3836,0.83953 -8.4668,2.51953 -2.01599,1.6128 -3.02539,3.79754 -3.02539,6.55273 0,2.7552 1.0094,5.00476 3.02539,6.75196 2.0832,1.67999 4.90521,2.52148 8.4668,2.52148 3.4944,0 6.24963,-0.84149 8.26563,-2.52148 2.08319,-1.7472 3.125,-3.99676 3.125,-6.75196 0,-2.75519 -1.0094,-4.93993 -3.02539,-6.55273 -2.016,-1.68 -4.80364,-2.51953 -8.36524,-2.51953 z m 0.20117,27.92187 c -4.23359,0 -7.59368,1.07421 -10.08008,3.22461 -2.48639,2.0832 -3.72851,4.9052 -3.72851,8.4668 0,3.36 1.20775,6.01409 3.62695,7.96289 2.4864,1.9488 5.81407,2.92383 9.98047,2.92383 4.032,0 7.29095,-0.97503 9.77734,-2.92383 2.5536,-2.016 3.83008,-4.67009 3.83008,-7.96289 0,-3.5616 -1.20971,-6.3836 -3.6289,-8.4668 -2.352,-2.1504 -5.61095,-3.22461 -9.77735,-3.22461 z M 128,56 a 72,72 0 0 0 -72,72 72,72 0 0 0 72,72 72,72 0 0 0 72,-72 72,72 0 0 0 -72,-72 z m 0.25195,37.54102 c 7.5264,0 13.50817,1.61229 17.94336,4.83789 4.4352,3.15839 6.65235,7.59464 6.65235,13.30664 0,6.18239 -3.19218,10.78459 -9.57618,13.80859 v 0.30273 c 3.8304,1.344 6.85467,3.59551 9.07227,6.75391 2.2848,3.0912 3.42578,6.72032 3.42578,10.88672 0,6.92159 -2.55296,12.33092 -7.66016,16.22852 -5.10719,3.89759 -11.69186,5.8457 -19.75585,5.8457 -8.1312,0 -14.85137,-1.88134 -20.16016,-5.64453 -5.3088,-3.8304 -7.96289,-9.10618 -7.96289,-15.82617 0,-4.2336 1.14098,-7.9295 3.42578,-11.0879 2.2848,-3.22559 5.34343,-5.57628 9.17383,-7.05468 v -0.30274 c -6.4512,-2.95679 -9.67774,-7.52659 -9.67774,-13.70898 0,-5.7792 2.28588,-10.28222 6.85547,-13.50781 4.5696,-3.2256 10.65055,-4.83789 18.24414,-4.83789 z" />
		<path d="m 240,81.332032 -13.89257,9.728516 -11.76172,8.236329 -7.3086,5.115233 A 82.5,82.5 0 0 1 210.5,128 a 82.5,82.5 0 0 1 -0.0781,1 82.5,82.5 0 0 1 -65.92188,79.6211 82.5,82.5 0 0 1 -12.5,1.56445 v 8.5 18.18359 l 12.5,-10.48828 v -9.04492 A 91,91 0 0 0 219,128 91,91 0 0 0 218.9746,127.05469 L 240,112.33203 v -1.42969 z" />
		<path d="m 16,81.562501 v 28.871089 2.12891 l 21.054688,14.74219 A 91,91 0 0 0 37.000001,128 91,91 0 0 0 111.5,217.33594 v 9.04492 l 12.5,10.48828 v -18.18359 -8.5 A 82.5,82.5 0 0 1 111.5,208.6211 82.5,82.5 0 0 1 45.578126,129 a 82.5,82.5 0 0 1 -0.07813,-1 82.5,82.5 0 0 1 3.515625,-23.32031 L 41.611329,99.496095 29.564454,91.060548 Z" />
	</g>
</svg>
