<?xml version="1.0" encoding="UTF-8" standalone="no"?>
<svg width="144" height="144" viewBox="0 0 144 144" version="1.1" xmlns="http://www.w3.org/2000/svg" xmlns:svg="http://www.w3.org/2000/svg">
	<g style="fill:currentcolor">
		<path d="M 72,0 A 72,72 0 0 0 0,72 72,72 0 0 0 72,144 72,72 0 0 0 144,72 72,72 0 0 0 72,0 Z m 0.554687,37.541016 c 7.257593,0 12.96837,2.116013 17.134766,6.349609 4.233596,4.233596 6.351563,9.475015 6.351563,15.724609 0,3.091197 -0.471311,5.915153 -1.41211,8.46875 -0.873599,2.486398 -2.283624,4.770318 -4.232422,6.853516 -1.948798,2.083198 -3.696589,3.729854 -5.242187,4.939453 -1.545599,1.209599 -3.695975,2.720758 -6.451172,4.535156 -7.526393,4.838396 -12.162958,8.938832 -13.910156,12.298828 H 96.646484 V 108 h -49.59375 c 0.1344,-4.0992 1.107477,-7.963 2.921875,-11.591797 1.814399,-3.695996 3.764459,-6.653496 5.847657,-8.871094 2.150398,-2.217597 4.770131,-4.53588 7.861328,-6.955078 1.075199,-0.873599 2.756218,-2.15008 5.041015,-3.830078 2.351998,-1.679998 4.097836,-2.990841 5.240235,-3.931641 1.142399,-0.940799 2.420832,-2.116145 3.832031,-3.527343 1.478399,-1.478399 2.518247,-2.957149 3.123047,-4.435547 0.604799,-1.545599 0.908203,-3.157892 0.908203,-4.837891 0,-3.292797 -0.839533,-5.914483 -2.519531,-7.863281 -1.679999,-1.948798 -4.032644,-2.921875 -7.056641,-2.921875 -3.494396,0 -6.249627,1.209709 -8.265625,3.628906 -1.948798,2.419198 -2.956237,5.878464 -3.023437,10.38086 H 48.060547 c 0,-8.063993 2.049241,-14.347214 6.148437,-18.84961 4.166396,-4.569595 10.281711,-6.853515 18.345703,-6.853515 z" />
	</g>
</svg>
