<?xml version="1.0" encoding="UTF-8" standalone="no"?>
<svg width="144" height="144" viewBox="0 0 144 144" version="1.1" xmlns="http://www.w3.org/2000/svg" xmlns:svg="http://www.w3.org/2000/svg">
	<g style="fill:currentcolor">
		<path d="M 72,0 A 72,72 0 0 0 0,72 72,72 0 0 0 72,144 72,72 0 0 0 144,72 72,72 0 0 0 72,0 Z m 0.251953,37.541016 c 7.257593,0 13.002732,1.679065 17.236328,5.039062 4.300796,3.359997 6.451172,7.897381 6.451172,13.609375 0,7.123193 -3.930576,11.960074 -11.792969,14.513672 v 0.203125 c 9.340791,2.284798 14.011719,8.0643 14.011719,17.337891 0,6.854393 -2.45378,12.128219 -7.359375,15.824219 -4.905595,3.6288 -11.122045,5.44336 -18.648437,5.44336 -8.735992,0 -15.421799,-2.21715 -20.058594,-6.65234 -4.636796,-4.502401 -7.02185,-10.617716 -7.15625,-18.345708 h 13.103515 c 0.5376,9.340791 5.073031,14.011719 13.607422,14.011719 3.830397,0 6.822259,-0.97503 8.972657,-2.923829 2.150398,-2.015998 3.224609,-4.771228 3.224609,-8.265625 0,-3.359996 -1.074211,-5.981683 -3.224609,-7.863281 -2.150398,-1.881598 -5.310167,-2.822265 -9.476563,-2.822265 h -4.232422 v -10.38086 h 3.931641 c 3.359997,0 6.046502,-0.807123 8.0625,-2.419922 2.083198,-1.612798 3.125,-3.864309 3.125,-6.753906 0,-2.755197 -0.873896,-4.937983 -2.621094,-6.550781 -1.747198,-1.679998 -4.132253,-2.521484 -7.15625,-2.521485 -3.763196,0 -6.686333,1.108575 -8.769531,3.326172 -2.015998,2.217598 -3.092163,5.20946 -3.226563,8.972657 H 47.152344 c 0.268799,-6.988794 2.554673,-12.533617 6.855468,-16.632813 4.300796,-4.099196 10.381749,-6.148437 18.244141,-6.148437 z" />
	</g>
</svg>
