<svg version="1.2" xmlns="http://www.w3.org/2000/svg" viewBox="0 0 93.12 107.52" width="93.12" height="107.5" ><path d="m16.3 33.7l28.7-16.6v-17.1l-43.5 25.1z"><animate attributeName="fill-opacity" values="1;0;0;0;0;0;1" dur="3" repeatCount="indefinite" /></path><path d="m14.8 36.3l-14.8-8.6v50.3l14.8-8.5z"><animate attributeName="fill-opacity" values="0;1;0;0;0;0;0" dur="3" repeatCount="indefinite" /></path><path d="m16.3 72.1l-14.8 8.5 43.5 25.1v-17.1z"><animate attributeName="fill-opacity" values="0;0;1;0;0;0;0" dur="3" repeatCount="indefinite" /></path><path d="m76.8 72.1l-28.8 16.5v17.1l43.6-25.1z"><animate attributeName="fill-opacity" values="0;0;0;1;0;0;0" dur="3" repeatCount="indefinite" /></path><path d="m78.3 69.5l14.8 8.5v-50.3l-14.8 8.6z"><animate attributeName="fill-opacity" values="0;0;0;0;1;0;0" dur="3" repeatCount="indefinite" /></path><path d="m48 17.1l28.8 16.6 14.8-8.6-43.6-25.1z"><animate attributeName="fill-opacity" values="0;0;0;0;0;1;0" dur="3" repeatCount="indefinite" /></path><path d="m48 36l12.4 7.1 13.3-7.7-25.7-14.8z"><animate attributeName="fill-opacity" values="1;1;0;0;0;0;1" dur="1.5" repeatCount="indefinite" /></path><path d="m61.9 60l13.3 7.7v-29.7l-13.3 7.7z"><animate attributeName="fill-opacity" values="0;1;1;0;0;0;0" dur="1.5" repeatCount="indefinite" /></path><path d="m48 69.7v15.4l25.7-14.8-13.3-7.7z"><animate attributeName="fill-opacity" values="0;0;1;1;0;0;0" dur="1.5" repeatCount="indefinite" /></path><path d="m32.7 62.6l-13.4 7.7 25.7 14.8v-15.4z"><animate attributeName="fill-opacity" values="0;0;0;1;1;0;0" dur="1.5" repeatCount="indefinite" /></path><path d="m31.2 45.7l-13.4-7.7v29.7l13.4-7.7z"><animate attributeName="fill-opacity" values="0;0;0;0;1;1;0" dur="1.5" repeatCount="indefinite" /></path><path d="m45 36v-15.4l-25.7 14.8 13.4 7.7z"><animate attributeName="fill-opacity" values="1;0;0;0;0;1;1" dur="1.5" repeatCount="indefinite" /></path></svg>