<?xml version="1.0" encoding="UTF-8" standalone="no"?>
<svg version="1.0" width="256" height="256" viewBox="0 0 256 256" id="svg1" xmlns="http://www.w3.org/2000/svg" xmlns:svg="http://www.w3.org/2000/svg">
	<g style="fill:currentcolor" id="vanquisher">
		<path d="m 111.5,208.6211 v 8.71484 23.04492 l 16.5,13.84375 16.5,-13.84375 V 217.33594 208.6211 A 82.5,82.5 0 0 1 128,210.5 82.5,82.5 0 0 1 111.5,208.6211 Z" />
		<path d="m 240,81.332032 -13.89257,9.728516 -11.76172,8.236329 -7.3086,5.115233 A 82.5,82.5 0 0 1 210.5,128 82.5,82.5 0 0 1 210.4219,129 82.5,82.5 0 0 1 159.43948,204 82.5,82.5 0 0 1 150,207.30078 V 216.01563 234 l 15,-15 v -8.13086 A 91,91 0 0 0 219,128 91,91 0 0 0 218.9746,127.05469 L 240,112.33203 v -1.42969 z" />
		<path d="m 16,81.562501 v 28.871089 2.12891 l 21.054688,14.74219 A 91,91 0 0 0 37.000001,128 91,91 0 0 0 91.000002,210.86914 V 219 L 106,234 v -17.98437 -8.71485 A 82.5,82.5 0 0 1 96.560549,204 82.5,82.5 0 0 1 45.578126,129 a 82.5,82.5 0 0 1 -0.07813,-1 82.5,82.5 0 0 1 3.515625,-23.32031 L 41.611329,99.496095 29.564454,91.060548 Z" />
	</g>
</svg>